<svg xmlns="http://www.w3.org/2000/svg" width="16.171" height="16.171" viewBox="0 0 16.171 16.171">
  <path id="_017-calendar" data-name="017-calendar" d="M5.717,16.171H3.79A3.794,3.794,0,0,1,0,12.381V7.2a3.794,3.794,0,0,1,3.79-3.79h8.591a3.794,3.794,0,0,1,3.79,3.79V9.1a.632.632,0,0,1-1.263,0V7.2a2.53,2.53,0,0,0-2.527-2.527H3.79A2.53,2.53,0,0,0,1.263,7.2v5.18A2.53,2.53,0,0,0,3.79,14.907H5.717a.632.632,0,0,1,0,1.263ZM6.38,1.895a1.895,1.895,0,1,0-3.79,0,.632.632,0,0,0,1.263,0,.632.632,0,1,1,1.263,0,.632.632,0,0,0,1.263,0Zm7.264,0a1.895,1.895,0,0,0-3.79,0,.632.632,0,0,0,1.263,0,.632.632,0,0,1,1.263,0,.632.632,0,0,0,1.263,0Zm2.527,12.349V12.576a1.934,1.934,0,0,0-1.932-1.932H12.57a.632.632,0,0,0,0,1.263h1.668a.67.67,0,0,1,.669.669v1.668a.632.632,0,0,0,1.263,0Zm-2.2-.385a.632.632,0,1,0-.914-.872A6.238,6.238,0,0,1,8.57,14.907h-.3a.632.632,0,0,0,0,1.263h.3A7.507,7.507,0,0,0,13.974,13.859ZM4.137,6.38a.79.79,0,1,0,.79.79A.79.79,0,0,0,4.137,6.38Zm2.716,0a.79.79,0,1,0,.79.79A.79.79,0,0,0,6.854,6.38Zm2.716,0a.79.79,0,1,0,.79.79A.79.79,0,0,0,9.57,6.38Zm2.716,0a.79.79,0,1,0,.79.79A.79.79,0,0,0,12.286,6.38ZM4.137,9.1a.79.79,0,1,0,.79.79A.79.79,0,0,0,4.137,9.1Zm0,2.716a.79.79,0,1,0,.79.79A.79.79,0,0,0,4.137,11.812ZM6.854,9.1a.79.79,0,1,0,.79.79A.79.79,0,0,0,6.854,9.1Zm0,2.716a.79.79,0,1,0,.79.79A.79.79,0,0,0,6.854,11.812ZM9.57,9.1a.79.79,0,1,0,.79.79A.79.79,0,0,0,9.57,9.1Z" fill="#744966"/>
</svg>
