<svg xmlns="http://www.w3.org/2000/svg" width="16.171" height="16.171" viewBox="0 0 16.171 16.171">
  <path id="_088-user" data-name="088-user" d="M8.511,16.171H7.66A1.407,1.407,0,0,1,6.223,14.8a6.24,6.24,0,0,0-.995-3.661.632.632,0,0,1-.143-.4V8.074a2.8,2.8,0,0,1,2.8-2.8h.4a2.8,2.8,0,0,1,2.8,2.8v2.664a.609.609,0,0,1-.141.4,6.25,6.25,0,0,0-1,3.663,1.407,1.407,0,0,1-1.437,1.371ZM6.348,10.536A7.72,7.72,0,0,1,7.486,14.8c0,.042.08.108.174.108h.851c.094,0,.174-.066.174-.108a7.72,7.72,0,0,1,1.138-4.263V8.074A1.538,1.538,0,0,0,8.286,6.538h-.4A1.538,1.538,0,0,0,6.348,8.074ZM8.054,4.3A2.148,2.148,0,1,1,10.2,2.148,2.15,2.15,0,0,1,8.054,4.3Zm0-3.032a.884.884,0,1,0,.884.884A.885.885,0,0,0,8.054,1.263Zm6.1,9.575L15.615,9.38a1.888,1.888,0,0,0,0-2.675l0,0L14.15,5.266a.632.632,0,0,0-.885.9L14.725,7.6a.625.625,0,0,1,0,.884L13.261,9.944a.632.632,0,1,0,.892.895Zm-11.242,0a.632.632,0,0,0,0-.893L1.447,8.486a.625.625,0,0,1,0-.884l1.46-1.434a.632.632,0,0,0-.885-.9L.559,6.7l0,0a1.888,1.888,0,0,0,0,2.675l1.462,1.458a.632.632,0,0,0,.893,0Z" transform="translate(0)" fill="#744966"/>
</svg>
