<svg id="Group_3634" data-name="Group 3634" xmlns="http://www.w3.org/2000/svg" width="14.422" height="14.422" viewBox="0 0 14.422 14.422">
  <path id="_063-heart" data-name="063-heart" d="M.563,14.421A.563.563,0,0,1,0,13.858V7.278A7.229,7.229,0,0,1,7.211,0a7.191,7.191,0,0,1,7.21,7.281,7.218,7.218,0,0,1-7.237,7.14H7.177a7.124,7.124,0,0,1-3.221-.757,2.5,2.5,0,0,0-2.885.482l-.11.11a.564.564,0,0,1-.4.165Zm2.289-2.145a3.585,3.585,0,0,1,1.609.381,6.008,6.008,0,0,0,2.717.637h.006a6.115,6.115,0,0,0,6.111-6.024,6.077,6.077,0,0,0-10.4-4.336A6.039,6.039,0,0,0,1.127,7.271s0,0,0,.005v5.438a3.63,3.63,0,0,1,1.726-.438Zm4.358-2.054A1.785,1.785,0,0,1,6.14,9.868,4.413,4.413,0,0,1,4.112,6.494s0-.008,0-.011a1.83,1.83,0,0,1,3.1-1.324,1.83,1.83,0,0,1,3.1,1.324s0,.008,0,.011A4.413,4.413,0,0,1,8.282,9.868a1.786,1.786,0,0,1-1.071.354ZM5.239,6.477a3.447,3.447,0,0,0,1.576,2.49.664.664,0,0,0,.791,0,3.447,3.447,0,0,0,1.576-2.49.7.7,0,0,0-1.408,0,.563.563,0,0,1-1.127,0,.7.7,0,0,0-1.408,0Z" transform="translate(0 0)" fill="#744966"/>
</svg>
