<svg xmlns="http://www.w3.org/2000/svg" width="23.662" height="21.99" viewBox="0 0 23.662 21.99">
  <g id="card" transform="translate(-1.24 -2.76)">
    <path id="Path_3103" data-name="Path 3103" d="M5.25,10.075a.825.825,0,0,1,.825-.825h17.6a.825.825,0,1,1,0,1.65H6.075A.825.825,0,0,1,5.25,10.075Z" transform="translate(0.401 0.649)" fill="#744966" fill-rule="evenodd"/>
    <path id="Path_3104" data-name="Path 3104" d="M5.987,4.431c.3-.011.63-.021.974-.021H19.182c1.959,0,2.859.263,3.333.729s.737,1.342.737,3.275v4.851a.825.825,0,0,0,1.65,0V8.414c0-1.928-.227-3.464-1.229-4.45s-2.545-1.2-4.491-1.2H6.961c-.379,0-.732.011-1.041.023H5.9A4.74,4.74,0,0,0,2.21,4.246,6.61,6.61,0,0,0,1.24,8.4v9.042c0,1.928.228,3.464,1.229,4.45s2.545,1.2,4.491,1.2h5.621a.825.825,0,1,0,0-1.65H6.961c-1.959,0-2.859-.263-3.333-.729s-.737-1.342-.737-3.275V8.4c0-1.744.217-2.634.612-3.131.357-.45,1.013-.756,2.485-.841Z" fill="#744966" fill-rule="evenodd"/>
    <path id="Path_3105" data-name="Path 3105" d="M5.25,16.075a.825.825,0,0,1,.825-.825h4.4a.825.825,0,1,1,0,1.65h-4.4A.825.825,0,0,1,5.25,16.075Z" transform="translate(0.401 1.25)" fill="#744966" fill-rule="evenodd"/>
    <path id="Path_3106" data-name="Path 3106" d="M18.475,14.9A3.574,3.574,0,0,0,14.9,18.475a3.489,3.489,0,0,0,.515,1.833l.007.011a3.558,3.558,0,0,0,6.106,0l.007-.011a3.489,3.489,0,0,0,.515-1.833A3.574,3.574,0,0,0,18.475,14.9ZM13.25,18.475a5.225,5.225,0,1,1,10.45,0,5.138,5.138,0,0,1-.757,2.694,5.208,5.208,0,0,1-8.936,0,5.139,5.139,0,0,1-.757-2.694Z" transform="translate(1.202 1.05)" fill="#744966" fill-rule="evenodd"/>
    <path id="Path_3107" data-name="Path 3107" d="M20.553,16.535a.825.825,0,0,1-.045,1.166l-2.343,2.167a.825.825,0,0,1-1.144-.022l-1.089-1.089A.825.825,0,0,1,17.1,17.59l.528.528,1.761-1.628A.825.825,0,0,1,20.553,16.535Z" transform="translate(1.446 1.352)" fill="#744966" fill-rule="evenodd"/>
  </g>
</svg>
