<svg xmlns="http://www.w3.org/2000/svg" width="14.68" height="14.65" viewBox="0 0 14.68 14.65">
  <path id="path2893" d="M6.933,290.915a2.674,2.674,0,0,0-2.664,2.665c-1.135-.013-2.235,0-3.362,0a.666.666,0,0,0,.034,1.332H1.6V302.9a2.674,2.674,0,0,0,2.665,2.664H10.93a2.668,2.668,0,0,0,2.659-2.664v-7.989h.669a.666.666,0,1,0,0-1.332c-1.114,0-2.213,0-3.327,0a2.675,2.675,0,0,0-2.665-2.665Zm0,1.333H8.265A1.316,1.316,0,0,1,9.6,293.58h-4a1.315,1.315,0,0,1,1.332-1.332Zm-4,2.664h9.321V302.9a1.31,1.31,0,0,1-1.327,1.332H4.269A1.316,1.316,0,0,1,2.936,302.9ZM4.922,296.9a.666.666,0,0,0-.653.679v3.991a.666.666,0,0,0,1.332,0v-3.991A.666.666,0,0,0,4.922,296.9Zm2.665,0a.667.667,0,0,0-.654.679v3.991a.666.666,0,1,0,1.332,0v-3.991a.666.666,0,0,0-.678-.679Zm2.664,0a.666.666,0,0,0-.653.679v3.991a.666.666,0,0,0,1.332,0v-3.991A.666.666,0,0,0,10.251,296.9Z" transform="translate(-0.259 -290.915)" fill="#b5b5b5"/>
</svg>
