<svg xmlns="http://www.w3.org/2000/svg" width="96.756" height="103.688" viewBox="0 0 96.756 103.688">
  <g id="_x31_9_Email" transform="translate(0 0)">
    <g id="Group_3469" data-name="Group 3469">
      <path id="Path_3093" data-name="Path 3093" d="M124.24,208.907V263.93a5.548,5.548,0,0,1-5.548,5.548H35.257a5.548,5.548,0,0,1-5.548-5.548V208.907" transform="translate(-28.597 -166.9)" fill="#e9e8e6"/>
      <path id="Path_3094" data-name="Path 3094" d="M37.769,384.2l31.057-30.283H97.876L128.933,384.2Z" transform="translate(-34.973 -281.621)" fill="#fff"/>
      <path id="Path_3095" data-name="Path 3095" d="M40.035,44.379,29.694,53.944l10.341,9.565L76.963,97.684,113.89,63.509l10.341-9.565L113.89,44.38,91.465,23.641l-9.232-8.533a7.739,7.739,0,0,0-10.541,0L62.46,23.641Z" transform="translate(-28.585 -11.94)" fill="#e9e8e5"/>
      <path id="Path_3096" data-name="Path 3096" d="M153.06,68.226v35.429l-36.927,34.175L79.2,103.656V68.226a4.438,4.438,0,0,1,4.438-4.438h64.978A4.438,4.438,0,0,1,153.06,68.226Z" transform="translate(-67.754 -52.092)" fill="#fff"/>
      <path id="Path_3097" data-name="Path 3097" d="M200.716,133.994c0,12.13-19.832,25.038-19.832,25.038s-19.832-12.909-19.832-25.038a10.749,10.749,0,0,1,19.832-5.744,10.749,10.749,0,0,1,19.832,5.744Z" transform="translate(-132.507 -99.134)" fill="#e9e8e5"/>
      <path id="Path_3098" data-name="Path 3098" d="M105.25,18.377H87.693l-8.906-8.232a8.887,8.887,0,0,0-12.05,0l-8.909,8.234H40.272a5.555,5.555,0,0,0-5.548,5.548V39.744L24.74,48.979a1.332,1.332,0,0,0-.357.815c0,.116,0,54.851,0,55.027a6.666,6.666,0,0,0,6.658,6.658h83.434a6.666,6.666,0,0,0,6.658-6.658c0-1.207,0-58.69,0-55.027a1.35,1.35,0,0,0-.357-.815L110.8,39.744V23.925a5.554,5.554,0,0,0-5.548-5.548Zm13.666,86.443a4.4,4.4,0,0,1-.7,2.367l-29.3-27.1,29.993-27.755ZM27.3,107.187a4.4,4.4,0,0,1-.7-2.367V52.335L56.6,80.09ZM68.246,11.77a6.663,6.663,0,0,1,9.033,0l7.145,6.6H61.1Zm-31.3,12.155A3.332,3.332,0,0,1,40.272,20.6H105.25a3.332,3.332,0,0,1,3.329,3.329V58.868L72.761,92.018,36.943,58.869ZM34.724,42.767V56.824l-7.6-7.03Zm-3.68,66.492a4.382,4.382,0,0,1-2.11-.558l29.3-27.1L72.007,94.349a1.112,1.112,0,0,0,1.508,0L87.29,81.6l29.3,27.1a4.382,4.382,0,0,1-2.11.558ZM118.4,49.794l-7.6,7.03V42.766Z" transform="translate(-24.383 -7.79)" fill="#744966"/>
      <path id="Path_3099" data-name="Path 3099" d="M177.287,155.761c.83-.541,20.336-13.381,20.336-25.968a11.862,11.862,0,0,0-20.942-7.623,11.86,11.86,0,0,0-20.94,7.623c0,12.587,19.506,25.428,20.336,25.968A1.11,1.11,0,0,0,177.287,155.761Zm-19.328-25.968a9.64,9.64,0,0,1,17.785-5.15,1.11,1.11,0,0,0,1.876,0,9.64,9.64,0,0,1,17.784,5.151c0,10.23-15.445,21.437-18.722,23.7C173.4,151.229,157.959,140.03,157.959,129.792Z" transform="translate(-128.303 -94.932)" fill="#744966"/>
    </g>
  </g>
</svg>
