<svg id="Page-1" xmlns="http://www.w3.org/2000/svg" width="100.918" height="100.97" viewBox="0 0 100.918 100.97">
  <g id="_033---Mailbox-sync" data-name="033---Mailbox-sync">
    <path id="Shape" d="M72.03,27.01a6.7,6.7,0,0,1,5,2.573L97.141,55.452a6.751,6.751,0,0,1,1.413,4.121v16.2A6.728,6.728,0,0,1,91.826,82.5H7.728A6.728,6.728,0,0,1,1,75.77v-16.2a6.751,6.751,0,0,1,1.413-4.121L22.529,29.583a6.7,6.7,0,0,1,5-2.573Z" transform="translate(0.682 16.789)" fill="#ebe9e4"/>
    <path id="Shape-2" data-name="Shape" d="M70.388,55.452,50.271,29.583a6.7,6.7,0,0,0-5-2.573H40.23a6.7,6.7,0,0,1,5,2.573L65.342,55.452a6.751,6.751,0,0,1,1.413,4.121v16.2A6.728,6.728,0,0,1,60.027,82.5h5.046A6.728,6.728,0,0,0,71.8,75.77v-16.2A6.751,6.751,0,0,0,70.388,55.452Z" transform="translate(27.436 16.789)" fill="#dfdbd1"/>
    <path id="Shape-3" data-name="Shape" d="M89.1,57.911H67.636a3.364,3.364,0,0,0-3.011,1.867l-3.2,6.358A3.364,3.364,0,0,1,58.419,68H35.679a3.364,3.364,0,0,1-3.011-1.867l-3.2-6.358a3.364,3.364,0,0,0-3.011-1.867H5L25.184,31H68.915Z" transform="translate(3.41 19.51)" fill="#fff"/>
    <circle id="Oval" cx="26.911" cy="26.911" r="26.911" transform="translate(23.548 1.733)" fill="#ebe9e4"/>
    <path id="Shape-4" data-name="Shape" d="M31.023,2c-.851,0-1.692.05-2.523.128a26.9,26.9,0,0,1,0,53.567c.831.077,1.672.128,2.523.128A26.911,26.911,0,1,0,31.023,2Z" transform="translate(19.436 -0.267)" fill="#dfdbd1"/>
    <path id="Shape-5" data-name="Shape" d="M7.728,99.554h5.046a6.728,6.728,0,0,1-6.728-6.728v-16.2a6.751,6.751,0,0,1,1.413-4.121L27.575,46.639a6.7,6.7,0,0,1,5.014-2.573A26.95,26.95,0,0,1,52.3,2.124C51.472,2.05,50.635,2,49.777,2A26.942,26.942,0,0,0,27.543,44.066a6.7,6.7,0,0,0-5.014,2.573L2.413,72.508A6.751,6.751,0,0,0,1,76.629v16.2a6.728,6.728,0,0,0,6.728,6.728Z" transform="translate(0.682 -0.267)" fill="#fff"/>
    <path id="Rectangle-path" d="M0,0H13.456V3.364H0Z" transform="matrix(0.614, -0.789, 0.789, 0.614, 1.739, 71.217)" fill="#fff"/>
    <g id="Group_3431" data-name="Group 3431">
      <path id="Shape-6" data-name="Shape" d="M5,43.126a1.682,1.682,0,0,1-.017-3.364H5a1.682,1.682,0,0,1,0,3.364Z" transform="translate(2.257 25.486)" fill="#744966"/>
      <path id="Shape-7" data-name="Shape" d="M79.032,46.3a8.393,8.393,0,0,0-3.67-2.691,28.593,28.593,0,1,0-49.807,0,8.393,8.393,0,0,0-3.67,2.691L10.028,61.557a1.682,1.682,0,0,0,2.654,2.065L24.537,48.377a5.014,5.014,0,0,1,2.952-1.806,28.484,28.484,0,0,0,39.155,6.592h4.841L91.163,79.4a1.682,1.682,0,0,0,2.691-2.018L73.67,50.471a1.682,1.682,0,0,0-1.346-.673H70.691A28.681,28.681,0,0,0,73.43,46.57a5,5,0,0,1,2.95,1.8L96.491,74.239a5.088,5.088,0,0,1,1.063,3.093v16.2a5.046,5.046,0,0,1-5.046,5.046H8.41a5.046,5.046,0,0,1-5.046-5.046v-16.2a5.088,5.088,0,0,1,1.063-3.093,1.682,1.682,0,0,0-2.664-2.055A8.477,8.477,0,0,0,0,77.332v16.2a8.42,8.42,0,0,0,8.41,8.41h84.1a8.42,8.42,0,0,0,8.41-8.41v-16.2a8.484,8.484,0,0,0-1.766-5.154Zm-53.8-16.69a25.23,25.23,0,1,1,25.23,25.23,25.23,25.23,0,0,1-25.23-25.23Z" transform="translate(0 -0.969)" fill="#744966"/>
      <path id="Shape-8" data-name="Shape" d="M25.462,31.456a1.682,1.682,0,0,0-2.355.336L4.336,56.821a1.682,1.682,0,0,0,1.346,2.691H27.151a1.672,1.672,0,0,1,1.5.93l3.187,6.373A5.017,5.017,0,0,0,36.354,69.6H59.108a5.017,5.017,0,0,0,4.513-2.789l3.187-6.373a1.672,1.672,0,0,1,1.5-.93h8.013a1.682,1.682,0,0,0,0-3.364H68.312A5.017,5.017,0,0,0,63.8,58.936l-3.187,6.373a1.672,1.672,0,0,1-1.5.93H36.354a1.672,1.672,0,0,1-1.5-.93l-3.187-6.373a5.017,5.017,0,0,0-4.513-2.789H9.046L25.8,33.811a1.682,1.682,0,0,0-.336-2.355Z" transform="translate(2.728 19.592)" fill="#744966"/>
      <path id="Shape-9" data-name="Shape" d="M51.945,15.9a1.682,1.682,0,0,0-2.257.754L48.569,18.9a15.138,15.138,0,0,0-25.825-4.45A1.682,1.682,0,1,0,25.328,16.6a11.774,11.774,0,0,1,20.454,4.632l-3.929-1.965a1.683,1.683,0,1,0-1.5,3.011l6.728,3.364a1.682,1.682,0,0,0,2.257-.754L52.7,18.16a1.682,1.682,0,0,0-.754-2.257Z" transform="translate(15.245 4.509)" fill="#744966"/>
      <path id="Shape-10" data-name="Shape" d="M47.048,26.216a11.774,11.774,0,0,1-20.454-4.632l3.929,1.973a1.683,1.683,0,1,0,1.5-3.011L25.3,17.182a1.682,1.682,0,0,0-2.257.754l-3.364,6.728a1.683,1.683,0,1,0,3.011,1.5l1.119-2.239a15.138,15.138,0,0,0,25.825,4.45,1.682,1.682,0,0,0-2.584-2.155Z" transform="translate(13.298 9.966)" fill="#744966"/>
    </g>
  </g>
</svg>
