<svg xmlns="http://www.w3.org/2000/svg" width="34.687" height="31.972" viewBox="0 0 34.687 31.972">
  <g id="Group_3743" data-name="Group 3743" transform="translate(-994.141 -1145.338)">
    <path id="Path_19" data-name="Path 19" d="M186.062,109.517v-1.2a1.6,1.6,0,0,0-1.594-1.594h-.578v-1.664a2.677,2.677,0,0,0-1.032-2.111,1.594,1.594,0,1,0-2.524-.421,2.685,2.685,0,0,0-1.8,2.533v.838a3.491,3.491,0,1,0,4.531,1.843h1.408a.579.579,0,0,1,.578.578v1.2a1.594,1.594,0,1,0,1.016,0Zm-4.31-8.3a.578.578,0,1,1-.578.578A.579.579,0,0,1,181.752,101.217Zm-1.9,10.389a2.479,2.479,0,0,1-1.323-4.575v.739a1.594,1.594,0,1,0,3.189,0v-.275a2.479,2.479,0,0,1-1.866,4.111Zm1.866-5.434v-1.118a.508.508,0,1,0-1.016,0v2.715a.578.578,0,0,1-1.156,0v-2.715a1.664,1.664,0,0,1,3.328,0v1.664h-.487A3.5,3.5,0,0,0,181.717,106.171Zm3.837,5.434a.578.578,0,1,1,.578-.578A.579.579,0,0,1,185.553,111.606Z" transform="translate(829.733 1050.568)" fill="#fff"/>
    <path id="Path_20" data-name="Path 20" d="M423.983,124.249a2.145,2.145,0,0,0-2.132,1.985l-.415,5.8a.579.579,0,0,1-.1.279l-.927,1.39a.508.508,0,1,0,.845.564l.927-1.39a1.6,1.6,0,0,0,.264-.771l.415-5.8a1.125,1.125,0,0,1,1.118-1.041.147.147,0,0,1,.147.147v6.779a4.391,4.391,0,0,1-.542,2.111l-4.489,8.162a2.142,2.142,0,0,0-.227,1.429l.923,4.855a.508.508,0,0,0,1-.19l-.923-4.855a1.124,1.124,0,0,1,.119-.75l4.489-8.162a5.41,5.41,0,0,0,.668-2.6v-6.779a1.165,1.165,0,0,0-1.163-1.163Z" transform="translate(603.682 1028.149)" fill="#fff"/>
    <path id="Path_21" data-name="Path 21" d="M345.576,229.077a1.627,1.627,0,0,0-1.28-.617,1.652,1.652,0,0,0-1.52,1l-1.99,4.642a9.755,9.755,0,0,0-.721,4.975l.8,6.783a.508.508,0,0,0,.5.449.516.516,0,0,0,.06,0,.508.508,0,0,0,.445-.564l-.8-6.783a8.738,8.738,0,0,1,.646-4.456l1.99-4.642a.637.637,0,0,1,.586-.386.619.619,0,0,1,.6.758l-1.311,5.679a.508.508,0,0,0,.99.229l1.311-5.679A1.627,1.627,0,0,0,345.576,229.077Z" transform="translate(677.176 930.998)" fill="#fff"/>
    <path id="Path_22" data-name="Path 22" d="M1.558,134.3a4.391,4.391,0,0,1-.542-2.111v-6.779a.147.147,0,0,1,.147-.147,1.125,1.125,0,0,1,1.118,1.041l.415,5.8a1.6,1.6,0,0,0,.264.771l.927,1.39a.508.508,0,1,0,.846-.564l-.927-1.39a.579.579,0,0,1-.1-.279l-.415-5.8a2.145,2.145,0,0,0-2.132-1.985A1.165,1.165,0,0,0,0,125.412v6.779a5.41,5.41,0,0,0,.668,2.6l4.489,8.162a1.123,1.123,0,0,1,.119.75l-.923,4.855a.508.508,0,1,0,1,.19l.923-4.855a2.142,2.142,0,0,0-.227-1.429Z" transform="translate(994.141 1028.149)" fill="#fff"/>
    <path id="Path_23" data-name="Path 23" d="M87.586,229.461a1.652,1.652,0,0,0-1.52-1,1.635,1.635,0,0,0-1.593,2l1.311,5.679a.508.508,0,1,0,.99-.229l-1.311-5.679a.619.619,0,0,1,.6-.758.637.637,0,0,1,.586.386l1.99,4.642a8.738,8.738,0,0,1,.646,4.456l-.8,6.783a.508.508,0,0,0,.445.564.519.519,0,0,0,.06,0,.508.508,0,0,0,.5-.449l.8-6.783a9.755,9.755,0,0,0-.721-4.975Z" transform="translate(915.431 930.999)" fill="#fff"/>
    <path id="Path_24" data-name="Path 24" d="M66.076,33.11a.508.508,0,0,0,.23-.681A10.427,10.427,0,0,1,65.143,27.8a6.752,6.752,0,0,1,6.745-6.745,6.684,6.684,0,0,1,4.871,2.088.508.508,0,0,0,.734,0,6.684,6.684,0,0,1,4.871-2.088A6.752,6.752,0,0,1,89.109,27.8a10.426,10.426,0,0,1-1.162,4.629.508.508,0,1,0,.911.451,11.43,11.43,0,0,0,1.268-5.08,7.77,7.77,0,0,0-7.761-7.761,7.678,7.678,0,0,0-5.238,2.042,7.678,7.678,0,0,0-5.238-2.042A7.77,7.77,0,0,0,64.127,27.8a11.431,11.431,0,0,0,1.268,5.08A.508.508,0,0,0,66.076,33.11Z" transform="translate(934.358 1125.299)" fill="#fff"/>
    <path id="Path_25" data-name="Path 25" d="M188.894,310.347a36.831,36.831,0,0,1-4.372,2.966,36.829,36.829,0,0,1-4.372-2.966.508.508,0,0,0-.629.8,35.856,35.856,0,0,0,4.761,3.2.508.508,0,0,0,.48,0,35.849,35.849,0,0,0,4.761-3.2.508.508,0,0,0-.629-.8Z" transform="translate(826.962 854.761)" fill="#fff"/>
  </g>
</svg>
