<svg xmlns="http://www.w3.org/2000/svg" width="14.157" height="11.798" viewBox="0 0 14.157 11.798">
  <path id="Path_3100" data-name="Path 3100" d="M4.465,42.667A4.313,4.313,0,0,0,0,46.81a6.959,6.959,0,0,0,2.648,5.167,15.023,15.023,0,0,0,3.734,2.341,1.726,1.726,0,0,0,1.393,0,15.021,15.021,0,0,0,3.734-2.341,6.959,6.959,0,0,0,2.648-5.167,4.313,4.313,0,0,0-4.465-4.143,4.552,4.552,0,0,0-2.614.929,4.552,4.552,0,0,0-2.614-.929ZM1.089,46.81A3.234,3.234,0,0,1,4.465,43.74a3.7,3.7,0,0,1,2.264.948l.349.288.349-.288a3.7,3.7,0,0,1,2.264-.948,3.234,3.234,0,0,1,3.376,3.071,5.9,5.9,0,0,1-2.285,4.367A13.934,13.934,0,0,1,7.33,53.339a.621.621,0,0,1-.5,0,13.933,13.933,0,0,1-3.453-2.161A5.9,5.9,0,0,1,1.089,46.81Z" transform="translate(0 -42.667)" fill="#744966" fill-rule="evenodd"/>
</svg>
