<svg id="_01_align_center" data-name="01 align center" xmlns="http://www.w3.org/2000/svg" width="17.249" height="17.04" viewBox="0 0 17.249 17.04">
  <path id="Path_3082" data-name="Path 3082" d="M9.586.689a1.437,1.437,0,0,0-1.923,0L0,7.585V15.06a2.3,2.3,0,0,0,2.3,2.3H14.949a2.3,2.3,0,0,0,2.3-2.3V7.585ZM10.781,15.92H6.468V12.308a2.156,2.156,0,0,1,4.312,0Zm5.031-.862a.862.862,0,0,1-.862.862H12.218V12.308a3.594,3.594,0,1,0-7.187,0V15.92H2.3a.862.862,0,0,1-.862-.862V8.225L8.624,1.757l7.187,6.468Z" transform="translate(0 -0.32)" fill="#707d8d"/>
</svg>
