<svg id="_01_align_center" data-name="01 align center" xmlns="http://www.w3.org/2000/svg" width="21.082" height="20.827" viewBox="0 0 21.082 20.827">
  <path id="Path_3082" data-name="Path 3082" d="M11.716.771a1.757,1.757,0,0,0-2.351,0L0,9.2v9.136a2.811,2.811,0,0,0,2.811,2.811h15.46a2.811,2.811,0,0,0,2.811-2.811V9.2Zm1.46,18.616H7.906V14.972a2.635,2.635,0,0,1,5.271,0Zm6.149-1.054a1.054,1.054,0,0,1-1.054,1.054H14.933V14.972a4.392,4.392,0,1,0-8.784,0v4.415H2.811a1.054,1.054,0,0,1-1.054-1.054V9.982l8.784-7.906,8.784,7.906Z" transform="translate(0 -0.32)" fill="#ebe9e4"/>
</svg>
