<svg xmlns="http://www.w3.org/2000/svg" width="17.249" height="17.04" viewBox="0 0 17.249 17.04">
  <g id="home_3_" data-name="home (3)" transform="translate(0 -0.32)">
    <path id="Path_3087" data-name="Path 3087" d="M11.156,14A2.156,2.156,0,0,0,9,16.156v5.05h4.312v-5.05A2.156,2.156,0,0,0,11.156,14Z" transform="translate(-2.532 -3.848)" fill="#764b68"/>
    <path id="Path_3088" data-name="Path 3088" d="M9.586.689a1.437,1.437,0,0,0-1.923,0L0,7.585V15.06a2.3,2.3,0,0,0,2.3,2.3H5.031V12.308a3.593,3.593,0,0,1,7.187,0v5.05h2.731a2.3,2.3,0,0,0,2.3-2.3V7.583Z" transform="translate(0 0)" fill="#764b68"/>
  </g>
</svg>
