<svg xmlns="http://www.w3.org/2000/svg" width="22.981" height="23.841" viewBox="0 0 22.981 23.841">
  <g id="layer1" transform="translate(-0.36 -290.907)">
    <path id="circle2859" d="M11.3,290.907a6.846,6.846,0,0,0-3.938,12.447,11.129,11.129,0,0,0-7,10.314,1.08,1.08,0,1,0,2.16,0,8.948,8.948,0,0,1,13.657-7.612,1.084,1.084,0,0,0,1.139-1.844,11.09,11.09,0,0,0-1.974-.937A6.84,6.84,0,0,0,11.3,290.907Zm0,2.162a4.691,4.691,0,1,1-4.687,4.7A4.684,4.684,0,0,1,11.3,293.069Zm10.93,12.961a1.081,1.081,0,0,0-.877.5L17.626,312.1l-2.335-1.563a1.084,1.084,0,0,0-1.2,1.8l3.246,2.16a1.08,1.08,0,0,0,1.5-.3l4.322-6.482a1.08,1.08,0,0,0-.926-1.689Z" transform="translate(0 0)" fill="#744966"/>
  </g>
</svg>
