<svg xmlns="http://www.w3.org/2000/svg" width="24.845" height="23.765" viewBox="0 0 24.845 23.765">
  <g id="logout_1_" data-name="logout (1)" transform="translate(0 0)">
    <path id="Path_3135" data-name="Path 3135" d="M165.805,220.62H150.142a.81.81,0,0,1,0-1.62h15.663a.81.81,0,1,1,0,1.62Zm0,0" transform="translate(-141.771 -207.928)" fill="#e9e8e5"/>
    <path id="Path_3136" data-name="Path 3136" d="M154.471,143.915a.8.8,0,0,1-.573-.238l-4.321-4.321a.811.811,0,0,1,0-1.146l4.321-4.321a.81.81,0,1,1,1.146,1.146l-3.748,3.748,3.748,3.748a.81.81,0,0,1-.574,1.383Zm0,0" transform="translate(-141.778 -126.902)" fill="#e9e8e5"/>
    <path id="Path_3137" data-name="Path 3137" d="M11.882,24.1A11.882,11.882,0,1,1,22.942,7.868a.81.81,0,1,1-1.508.593,10.262,10.262,0,1,0,0,7.509.81.81,0,1,1,1.508.593A11.822,11.822,0,0,1,11.882,24.1Zm0,0" transform="translate(0 -0.332)" fill="#e9e8e5"/>
  </g>
</svg>
