<svg xmlns="http://www.w3.org/2000/svg" width="26.118" height="20.609" viewBox="0 0 26.118 20.609">
  <path id="_001-mail_inbox_app" data-name="001-mail inbox app" d="M20,74.608H6.121A6.128,6.128,0,0,1,0,68.487V60.121A6.128,6.128,0,0,1,6.121,54H20a6.128,6.128,0,0,1,6.121,6.121v8.366A6.128,6.128,0,0,1,20,74.608ZM6.121,56.04A4.086,4.086,0,0,0,2.04,60.121v8.366a4.086,4.086,0,0,0,4.081,4.081H20a4.086,4.086,0,0,0,4.081-4.081V60.121A4.086,4.086,0,0,0,20,56.04ZM16.8,66.11l5.043-3.852A1.02,1.02,0,0,0,20.6,60.637l-5.042,3.851a4.091,4.091,0,0,1-4.946,0l-4.886-3.8A1.02,1.02,0,1,0,4.475,62.3l4.89,3.8.007.006a6.136,6.136,0,0,0,7.425,0Z" transform="translate(0 -54)" fill="#744966"/>
</svg>
