<svg xmlns="http://www.w3.org/2000/svg" width="10.473" height="10.208" viewBox="0 0 10.473 10.208">
  <g id="Layer_42" data-name="Layer 42" transform="translate(-1.995 -2.528)">
    <path id="Path_3128" data-name="Path 3128" d="M10.474,6.323l1.276-1.276a1.5,1.5,0,0,0,0-2.094A1.386,1.386,0,0,0,10.7,2.529a1.5,1.5,0,0,0-1.042.444L3.992,8.662a.414.414,0,0,0-.08.1l-1.85,3.221a.5.5,0,0,0,.683.683l3.211-1.855a.5.5,0,0,0,.1-.08Zm-.1-2.648a.5.5,0,0,1,.354-.15.464.464,0,0,1,.329.135.5.5,0,0,1,0,.683l-.937.912L9.477,4.6ZM5.388,9.983l-1.546.9L4.735,9.32,8.724,5.3l.668.668Zm7.08,2.254a.5.5,0,0,1-.5.5H7.483a.5.5,0,0,1,0-1H11.97A.5.5,0,0,1,12.469,12.237Z"/>
  </g>
</svg>
