<svg xmlns="http://www.w3.org/2000/svg" width="26.102" height="26.124" viewBox="0 0 26.102 26.124">
  <path id="_003-telephone" data-name="003-telephone" d="M17.086,26.125c-10.467-.079-22.73-15.33-13.769-24.3.318-.324.655-.635,1-.925A3.8,3.8,0,0,1,9.46,1.12l.013.013L11.2,2.927A3.742,3.742,0,0,1,9.97,9a8.239,8.239,0,0,0-1.363.673c-.95.968-1.555,2.542,2,6.1,1.154,1.156,2.862,2.692,4.375,2.692a2.416,2.416,0,0,0,1.721-.794,7.927,7.927,0,0,0,.63-1.305,3.734,3.734,0,0,1,6.081-1.253l1.773,1.716.013.012a3.811,3.811,0,0,1,.228,5.133c-.271.325-.56.641-.86.942a10.352,10.352,0,0,1-7.48,3.2ZM6.775,2.044a1.777,1.777,0,0,0-1.144.421c-.3.249-.586.516-.859.793C-.005,8.11,2.62,14.737,7.21,19.274c4.548,4.525,11.142,7,15.913,2.207.257-.257.5-.529.737-.807a1.762,1.762,0,0,0-.1-2.379l-1.772-1.715-.013-.012a1.68,1.68,0,0,0-2.75.565,7.863,7.863,0,0,1-1.05,1.957,4.43,4.43,0,0,1-3.195,1.422c-2.246,0-4.29-1.759-5.819-3.291C6.841,15,4.159,11.2,7.188,8.21A8.1,8.1,0,0,1,9.2,7.115a1.688,1.688,0,0,0,.549-2.754l-.013-.013L8.01,2.555a1.748,1.748,0,0,0-1.235-.512ZM25.3,12.2a1.02,1.02,0,0,1-1.015-.929,10.182,10.182,0,0,0-9.232-9.232A1.02,1.02,0,1,1,15.231,0,12.311,12.311,0,0,1,26.312,11.086a1.02,1.02,0,0,1-.925,1.108q-.047,0-.093,0Zm-7.949,0a1.02,1.02,0,0,0,.645-1.291A4.127,4.127,0,0,0,15.48,8.328a1.02,1.02,0,0,0-.68,1.924,2.073,2.073,0,0,1,1.256,1.3,1.019,1.019,0,0,0,1.291.645Zm4.008-.009a1.02,1.02,0,0,0,.866-1.154A8.219,8.219,0,0,0,15.284,4.1,1.02,1.02,0,0,0,15,6.117a6.168,6.168,0,0,1,5.2,5.2,1.02,1.02,0,0,0,1.154.866Z" transform="translate(-0.214 -0.001)" fill="#744966"/>
</svg>
