<svg xmlns="http://www.w3.org/2000/svg" width="8.907" height="11.006" viewBox="0 0 8.907 11.006">
  <g id="Layer_5" data-name="Layer 5" transform="translate(-4 -1.995)">
    <path id="Path_3127" data-name="Path 3127" d="M11.859,3.569h-.786V2.914A.975.975,0,0,0,10.025,2H6.882a.975.975,0,0,0-1.048.917v.655H5.048A1.048,1.048,0,0,0,4,4.617V6.189a.524.524,0,0,0,.524.524v5.344A.98.98,0,0,0,5.535,13h5.837a.98.98,0,0,0,1.011-.943V6.713a.524.524,0,0,0,.524-.524V4.617a1.048,1.048,0,0,0-1.048-1.048ZM6.882,3.045h3.144v.524H6.882ZM5.048,4.617h6.811V5.665H5.048Zm6.287,7.335H5.572V6.713h5.764Z"/>
  </g>
</svg>
