<svg id="wedding-ring" xmlns="http://www.w3.org/2000/svg" width="25.053" height="21.713" viewBox="0 0 25.053 21.713">
  <path id="Path_3132" data-name="Path 3132" d="M19.4,7.339,17.152,5.091,18.1,3.67h3.831l.944,1.421L20.615,7.347,21.8,8.528l3.222-3.222L22.822,2H17.2L15,5.306,18.218,8.52Z" transform="translate(-2.474 -2)" fill="#e9e8e5"/>
  <path id="Path_3133" data-name="Path 3133" d="M8.351,24.7a8.092,8.092,0,0,0,2.735-.463A8.354,8.354,0,0,0,16.7,16.351a8.2,8.2,0,0,0-.577-3.03l-1.553.615a6.532,6.532,0,0,1,.459,2.415,6.684,6.684,0,0,1-4.5,6.312,6.444,6.444,0,0,1-2.182.369,6.681,6.681,0,0,1,0-13.362,6.619,6.619,0,0,1,3.285.866l.83-1.449A8.35,8.35,0,1,0,8.351,24.7Z" transform="translate(0 -2.989)" fill="#e9e8e5"/>
  <path id="Path_3134" data-name="Path 3134" d="M19.516,10a7.511,7.511,0,0,0-5.995,2.98A7.582,7.582,0,0,0,12,17.516a7.39,7.39,0,0,0,.809,3.385l1.488-.758a5.741,5.741,0,0,1-.627-2.628,5.846,5.846,0,1,1,5.846,5.846,5.594,5.594,0,0,1-1.89-.318l-.563,1.572a7.247,7.247,0,0,0,2.453.416,7.516,7.516,0,1,0,0-15.032Z" transform="translate(-1.979 -3.319)" fill="#e9e8e5"/>
</svg>
