<svg xmlns="http://www.w3.org/2000/svg" width="29.495" height="25.123" viewBox="0 0 29.495 25.123">
  <g id="rings" transform="translate(-0.253 -2.438)">
    <path id="Path_10" data-name="Path 10" d="M25.089,10.39a9.2,9.2,0,0,0-7.995-.519.751.751,0,0,0,.569,1.389c9.537-3.5,15.049,10.064,5.777,14.211-6.628,2.774-13.163-4.7-9.558-10.894a.75.75,0,0,0-1.252-.826,9.176,9.176,0,0,0,3.4,12.591c10.805,5.6,19.405-9.537,9.062-15.952Z" fill="#744966"/>
    <path id="Path_11" data-name="Path 11" d="M11.9,25.62a7.671,7.671,0,1,1,4.335-3.751.75.75,0,0,0,1.334.688A9.2,9.2,0,0,0,11.5,9.444,8.564,8.564,0,0,0,13.9,7.318,3.2,3.2,0,0,0,9.406,2.993a3.19,3.19,0,0,0-4.425.876c-1.522,2.184.381,4.507,2.332,5.57-12.3,3.505-7.194,21.164,5.068,17.6a.75.75,0,0,0-.486-1.418ZM6.2,6.536A1.692,1.692,0,0,1,8.857,4.485a.753.753,0,0,0,1.1,0A1.678,1.678,0,0,1,12.063,4.2c2.122,1.547-.387,3.426-1.816,4.3-.633.587-1.031.594-1.663,0A9.466,9.466,0,0,1,6.2,6.536Z" fill="#744966"/>
  </g>
</svg>
