<svg id="send" xmlns="http://www.w3.org/2000/svg" width="20.089" height="20.058" viewBox="0 0 20.089 20.058">
  <path id="Path_3144" data-name="Path 3144" d="M13.969,21.393a2.164,2.164,0,0,1-1.882-1.157L8.813,14.25a.753.753,0,0,0-.32-.32L2.508,10.7a2.2,2.2,0,0,1,.4-4.037L18.5,1.462h0a2.211,2.211,0,0,1,2.823,2.823l-5.241,15.6a2.174,2.174,0,0,1-1.882,1.5ZM18.9,2.808,3.308,8.011a.79.79,0,0,0-.546.687.781.781,0,0,0,.414.762l5.985,3.228a2.155,2.155,0,0,1,.894.894l3.2,5.985a.781.781,0,0,0,.762.414.79.79,0,0,0,.687-.546L19.935,3.843A.79.79,0,0,0,18.9,2.808Z" transform="translate(-1.357 -1.335)" fill="#e9e8e5"/>
  <path id="Path_3145" data-name="Path 3145" d="M9.626,14.295a.668.668,0,0,1-.5-.207.7.7,0,0,1,0-1l11.066-11.1a.732.732,0,1,1,1.035,1.035l-11.1,11.066a.7.7,0,0,1-.5.207Z" transform="translate(-1.803 -1.361)" fill="#e9e8e5"/>
</svg>
