<svg id="settings" xmlns="http://www.w3.org/2000/svg" width="15.52" height="17.249" viewBox="0 0 15.52 17.249">
  <path id="Path_3083" data-name="Path 3083" d="M10.875,8a2.875,2.875,0,1,0,2.875,2.875A2.875,2.875,0,0,0,10.875,8Zm0,4.312a1.437,1.437,0,1,1,1.437-1.437A1.437,1.437,0,0,1,10.875,12.312Z" transform="translate(-3.115 -2.25)" fill="#707d8d"/>
  <path id="Path_3084" data-name="Path 3084" d="M15.642,9.99l-.319-.184a6.54,6.54,0,0,0,0-2.365l.319-.184A2.157,2.157,0,1,0,13.486,3.52l-.32.185a6.452,6.452,0,0,0-2.048-1.18V2.156a2.156,2.156,0,1,0-4.312,0v.369A6.452,6.452,0,0,0,4.76,3.708l-.321-.186A2.157,2.157,0,1,0,2.282,7.259l.319.184a6.54,6.54,0,0,0,0,2.365l-.319.184a2.157,2.157,0,0,0,2.156,3.737l.32-.185a6.452,6.452,0,0,0,2.048,1.18v.369a2.156,2.156,0,1,0,4.312,0v-.369a6.452,6.452,0,0,0,2.047-1.183l.321.185a2.157,2.157,0,1,0,2.156-3.737ZM13.811,7.276a5.065,5.065,0,0,1,0,2.7.719.719,0,0,0,.333.814l.779.45a.719.719,0,1,1-.719,1.246l-.781-.451a.719.719,0,0,0-.873.119A5.019,5.019,0,0,1,10.221,13.5a.719.719,0,0,0-.54.7v.9a.719.719,0,1,1-1.437,0v-.9a.719.719,0,0,0-.54-.7,5.019,5.019,0,0,1-2.33-1.35.719.719,0,0,0-.873-.119l-.779.451A.719.719,0,1,1,3,11.233l.779-.45a.719.719,0,0,0,.333-.814,5.065,5.065,0,0,1,0-2.7.719.719,0,0,0-.334-.811L3,6.013a.719.719,0,0,1,.719-1.246l.781.451A.719.719,0,0,0,5.374,5.1,5.019,5.019,0,0,1,7.7,3.755a.719.719,0,0,0,.54-.7v-.9a.719.719,0,1,1,1.437,0v.9a.719.719,0,0,0,.54.7A5.019,5.019,0,0,1,12.552,5.1a.719.719,0,0,0,.873.119l.779-.451a.719.719,0,1,1,.719,1.245l-.779.45a.719.719,0,0,0-.333.811Z" transform="translate(-1.203)" fill="#707d8d"/>
</svg>
