<svg xmlns="http://www.w3.org/2000/svg" width="15.52" height="17.249" viewBox="0 0 15.52 17.249">
  <g id="settings_1_" data-name="settings (1)" transform="translate(-25.66)">
    <path id="Path_3085" data-name="Path 3085" d="M25.951,12.937a2.156,2.156,0,0,0,2.945.792h0l.32-.185a6.452,6.452,0,0,0,2.047,1.182v.369a2.156,2.156,0,1,0,4.312,0v-.369a6.451,6.451,0,0,0,2.047-1.183l.321.185A2.157,2.157,0,0,0,40.1,9.989h0l-.319-.184a6.541,6.541,0,0,0,0-2.365l.319-.184a2.157,2.157,0,0,0-2.156-3.737l-.32.185a6.452,6.452,0,0,0-2.048-1.179V2.156a2.156,2.156,0,1,0-4.312,0v.369a6.451,6.451,0,0,0-2.047,1.183L28.9,3.522A2.157,2.157,0,1,0,26.74,7.259h0l.319.184a6.541,6.541,0,0,0,0,2.365l-.319.184A2.16,2.16,0,0,0,25.951,12.937ZM33.42,5.75a2.875,2.875,0,1,1-2.875,2.875A2.875,2.875,0,0,1,33.42,5.75Z" fill="#744966"/>
  </g>
</svg>
