<svg id="settingsMenu" xmlns="http://www.w3.org/2000/svg" width="21.354" height="23.733" viewBox="0 0 21.354 23.733">
  <path id="Path_3083" data-name="Path 3083" d="M11.956,8a3.956,3.956,0,1,0,3.956,3.956A3.956,3.956,0,0,0,11.956,8Zm0,5.933a1.978,1.978,0,1,1,1.978-1.978A1.978,1.978,0,0,1,11.956,13.933Z" transform="translate(-1.278 -0.089)" fill="#ebe9e4"/>
  <path id="Path_3084" data-name="Path 3084" d="M21.071,13.746l-.439-.253a9,9,0,0,0,0-3.253l.439-.253A2.968,2.968,0,1,0,18.1,4.844l-.44.254a8.877,8.877,0,0,0-2.817-1.624V2.967a2.967,2.967,0,1,0-5.933,0v.507A8.877,8.877,0,0,0,6.1,5.1l-.442-.256A2.968,2.968,0,1,0,2.688,9.988l.439.253a9,9,0,0,0,0,3.253l-.439.253A2.968,2.968,0,0,0,5.655,18.89l.44-.254a8.877,8.877,0,0,0,2.818,1.624v.507a2.967,2.967,0,1,0,5.933,0v-.507a8.877,8.877,0,0,0,2.816-1.628l.442.255a2.968,2.968,0,1,0,2.967-5.142Zm-2.52-3.734a6.97,6.97,0,0,1,0,3.708.989.989,0,0,0,.459,1.12l1.072.619a.989.989,0,1,1-.989,1.714l-1.074-.621a.989.989,0,0,0-1.2.163,6.906,6.906,0,0,1-3.207,1.854.989.989,0,0,0-.743.958v1.239a.989.989,0,1,1-1.978,0V19.529a.989.989,0,0,0-.743-.958,6.906,6.906,0,0,1-3.206-1.858.989.989,0,0,0-1.2-.163l-1.072.62a.989.989,0,1,1-.989-1.713l1.072-.619a.989.989,0,0,0,.459-1.12,6.97,6.97,0,0,1,0-3.708.989.989,0,0,0-.46-1.116L3.678,8.273a.989.989,0,0,1,.989-1.714l1.074.621a.989.989,0,0,0,1.2-.159,6.906,6.906,0,0,1,3.207-1.854.989.989,0,0,0,.743-.962V2.967a.989.989,0,1,1,1.978,0V4.2a.989.989,0,0,0,.743.958,6.906,6.906,0,0,1,3.207,1.858.989.989,0,0,0,1.2.163l1.072-.62a.989.989,0,1,1,.989,1.713L19.009,8.9a.989.989,0,0,0-.458,1.116Z" transform="translate(-1.203)" fill="#ebe9e4"/>
</svg>
