<svg xmlns="http://www.w3.org/2000/svg" width="23.132" height="19.363" viewBox="0 0 23.132 19.363">
  <path id="share_1_" data-name="share (1)" d="M22.343,47.592l-5.236-5.236a1.884,1.884,0,0,0-1.3-.651c-.593,0-1.286.451-1.286,1.723v1.783A15.2,15.2,0,0,0,0,60.391a.678.678,0,0,0,1.22.407,17.329,17.329,0,0,1,13.3-6.974v1.755c0,1.272.693,1.723,1.286,1.723h0a1.884,1.884,0,0,0,1.3-.651l5.236-5.236a2.708,2.708,0,0,0,0-3.822Zm-.958,2.864-5.236,5.236a1.439,1.439,0,0,1-.245.2,1.44,1.44,0,0,1-.03-.316V53.133a.678.678,0,0,0-.678-.678,18.623,18.623,0,0,0-8.552,2.05A18.984,18.984,0,0,0,1.5,58.363,13.862,13.862,0,0,1,15.2,46.552a.678.678,0,0,0,.678-.678V43.428a1.442,1.442,0,0,1,.03-.316,1.44,1.44,0,0,1,.245.2l5.236,5.236a1.353,1.353,0,0,1,0,1.905Z" transform="translate(0 -41.705)" fill="#e9e8e5"/>
</svg>
