<svg xmlns="http://www.w3.org/2000/svg" width="21.415" height="23.435" viewBox="0 0 21.415 23.435">
  <g id="Single-Female" transform="translate(-2.846 -1.983)">
    <g id="Group_1154" data-name="Group 1154" transform="translate(2.846 5.745)">
      <path id="Path_27" data-name="Path 27" d="M21.809,24.87a1.169,1.169,0,0,1-1.157-1.006,7.006,7.006,0,0,0-.327-1.333l-13.543,0a7.217,7.217,0,0,1,2.694-3.546A1.17,1.17,0,0,0,9.1,16.893a7.334,7.334,0,0,1-3.538-1.957A10.753,10.753,0,0,0,7.1,10.717,10.071,10.071,0,0,1,8.2,6.925,1.17,1.17,0,0,0,6.143,5.812a12.455,12.455,0,0,0-1.374,4.716,6.217,6.217,0,0,1-1.484,3.505,1.169,1.169,0,0,0-.2,1.626,9.733,9.733,0,0,0,3.456,2.8,9.509,9.509,0,0,0-2.4,5.079A1.17,1.17,0,0,0,5.3,24.872Z" transform="translate(-2.846 -5.199)" fill="#744966"/>
    </g>
    <g id="Group_1156" data-name="Group 1156" transform="translate(8.773 1.983)">
      <g id="Group_1155" data-name="Group 1155">
        <path id="Path_28" data-name="Path 28" d="M20.759,15.478a10.287,10.287,0,0,1-1.5-4.351C18.6,4.376,13.325,4.3,12.728,4.32a6.293,6.293,0,0,0-3.078.743A1.169,1.169,0,1,1,8.519,3.016a8.649,8.649,0,0,1,4.166-1.033c.053,0,8.019-.186,8.906,9a9.385,9.385,0,0,0,1.628,4.056,1.166,1.166,0,0,1-.074,1.354,10.807,10.807,0,0,1-3.461,2.6,9.5,9.5,0,0,1,2.425,5.1,1.17,1.17,0,0,1-1,1.322,1.14,1.14,0,0,1-.165.012,1.169,1.169,0,0,1-1.157-1.006A7.191,7.191,0,0,0,16.8,19.556a1.17,1.17,0,0,1,.325-2.074A9.916,9.916,0,0,0,20.759,15.478Z" transform="translate(-7.914 -1.983)" fill="#c2b3bd"/>
      </g>
    </g>
  </g>
</svg>
