<svg id="Single-Male" xmlns="http://www.w3.org/2000/svg" width="21.6" height="22.155" viewBox="0 0 21.6 22.155">
  <g id="Group_1157" data-name="Group 1157" transform="translate(0 3.739)">
    <path id="Path_29" data-name="Path 29" d="M21.723,23.111a13.894,13.894,0,0,0-.713-1.516H5.108a9.305,9.305,0,0,1,3.6-3.906,1.11,1.11,0,0,0,.183-1.852A6.655,6.655,0,0,1,7.334,7.09,1.109,1.109,0,1,0,5.446,5.927,8.86,8.86,0,0,0,6.409,16.54,13.6,13.6,0,0,0,2.342,22.3a1.108,1.108,0,0,0,1.032,1.516H22.751A1.108,1.108,0,0,1,21.723,23.111Z" transform="translate(-2.264 -5.398)" fill="#744966"/>
  </g>
  <g id="Group_1158" data-name="Group 1158" transform="translate(5.721 0)">
    <path id="Path_30" data-name="Path 30" d="M22.19,24.182a1.111,1.111,0,0,1-1.032-.7,10.388,10.388,0,0,0-4.3-5.423,1.11,1.11,0,0,1-.183-1.851A6.705,6.705,0,0,0,9.093,5.179,1.109,1.109,0,0,1,7.967,3.268a8.934,8.934,0,0,1,13.477,7.7,8.841,8.841,0,0,1-2.292,5.938,13.6,13.6,0,0,1,4.071,5.757,1.11,1.11,0,0,1-1.033,1.516Z" transform="translate(-7.422 -2.027)" fill="#c2b3bd"/>
  </g>
</svg>
