<svg id="star" xmlns="http://www.w3.org/2000/svg" width="29.883" height="28.479" viewBox="0 0 29.883 28.479">
  <g id="Group_3683" data-name="Group 3683" transform="translate(3.726 1.551)">
    <g id="Group_3682" data-name="Group 3682" transform="translate(0 0)">
      <path id="Path_3138" data-name="Path 3138" d="M84.271,45.086l-4.934-.717L77.131,39.9a2.325,2.325,0,0,0-4.168,0l-2.206,4.471-4.934.717a2.325,2.325,0,0,0-1.288,3.964l3.57,3.48-.843,4.913a2.325,2.325,0,0,0,3.372,2.45l4.413-2.32,4.413,2.32a2.325,2.325,0,0,0,3.372-2.45L81.99,52.53l3.57-3.48A2.325,2.325,0,0,0,84.271,45.086Zm-.1,2.538-3.945,3.845a1,1,0,0,0-.286.882l.931,5.43a.331.331,0,0,1-.482.35l-4.876-2.564a1,1,0,0,0-.927,0l-4.876,2.564a.331.331,0,0,1-.482-.35l.931-5.43a1,1,0,0,0-.286-.882l-3.945-3.845a.331.331,0,0,1,.184-.566l5.452-.792a1,1,0,0,0,.75-.545l2.438-4.94a.331.331,0,0,1,.6,0l2.438,4.94a1,1,0,0,0,.75.545l5.452.792A.331.331,0,0,1,84.169,47.624Z" transform="translate(-63.831 -38.604)" fill="#e9e8e5"/>
    </g>
  </g>
  <g id="Group_3685" data-name="Group 3685" transform="translate(4.87 0)">
    <g id="Group_3684" data-name="Group 3684">
      <path id="Path_3139" data-name="Path 3139" d="M86.439,14.074l-1.191-1.64a1,1,0,0,0-1.612,1.171l1.191,1.64a1,1,0,0,0,1.612-1.171Z" transform="translate(-83.446 -12.023)" fill="#e9e8e5"/>
    </g>
  </g>
  <g id="Group_3687" data-name="Group 3687" transform="translate(0 16.055)">
    <g id="Group_3686" data-name="Group 3686" transform="translate(0 0)">
      <path id="Path_3140" data-name="Path 3140" d="M3.91,287.8a1,1,0,0,0-1.255-.639L.688,287.8a1,1,0,0,0,.616,1.895l1.967-.639A1,1,0,0,0,3.91,287.8Z" transform="translate(0.001 -287.109)" fill="#e9e8e5"/>
    </g>
  </g>
  <g id="Group_3689" data-name="Group 3689" transform="translate(21.829 0)">
    <g id="Group_3688" data-name="Group 3688" transform="translate(0 0)">
      <path id="Path_3141" data-name="Path 3141" d="M376.782,12.215a1,1,0,0,0-1.391.22l-1.191,1.64a1,1,0,0,0,1.612,1.171L377,13.607A1,1,0,0,0,376.782,12.215Z" transform="translate(-374.009 -12.025)" fill="#e9e8e5"/>
    </g>
  </g>
  <g id="Group_3691" data-name="Group 3691" transform="translate(25.923 16.055)">
    <g id="Group_3690" data-name="Group 3690" transform="translate(0 0)">
      <path id="Path_3142" data-name="Path 3142" d="M447.433,287.8l-1.967-.639a1,1,0,0,0-.616,1.895l1.967.639a1,1,0,0,0,.616-1.895Z" transform="translate(-444.162 -287.108)" fill="#e9e8e5"/>
    </g>
  </g>
  <g id="Group_3693" data-name="Group 3693" transform="translate(13.945 24.465)">
    <g id="Group_3692" data-name="Group 3692" transform="translate(0 0)">
      <path id="Path_3143" data-name="Path 3143" d="M239.93,431.2a1,1,0,0,0-1,1v2.022a1,1,0,0,0,1.992,0V432.2A1,1,0,0,0,239.93,431.2Z" transform="translate(-238.934 -431.205)" fill="#e9e8e5"/>
    </g>
  </g>
</svg>
