<svg xmlns="http://www.w3.org/2000/svg" width="13.42" height="13.431" viewBox="0 0 13.42 13.431">
  <path id="_003-telephone" data-name="003-telephone" d="M8.888,13.431C3.507,13.391-2.8,5.55,1.81.939c.164-.166.337-.326.515-.476A1.956,1.956,0,0,1,4.968.576l.007.007.887.922A1.924,1.924,0,0,1,5.23,4.63a4.236,4.236,0,0,0-.7.346c-.489.5-.8,1.307,1.028,3.138A3.963,3.963,0,0,0,7.806,9.5a1.242,1.242,0,0,0,.885-.408,4.076,4.076,0,0,0,.324-.671,1.92,1.92,0,0,1,3.126-.644l.911.882.006.006a1.959,1.959,0,0,1,.117,2.639c-.139.167-.288.33-.442.484a5.322,5.322,0,0,1-3.846,1.646Zm-5.3-12.38A.913.913,0,0,0,3,1.267c-.153.128-.3.265-.441.408C.1,4.17,1.451,7.577,3.811,9.91c2.338,2.327,5.728,3.6,8.181,1.135.132-.132.26-.272.379-.415a.906.906,0,0,0-.051-1.223l-.911-.881L11.4,8.519a.864.864,0,0,0-1.414.29,4.043,4.043,0,0,1-.54,1.006,2.277,2.277,0,0,1-1.643.731A4.7,4.7,0,0,1,4.814,8.854C3.621,7.71,2.242,5.758,3.8,4.221a4.166,4.166,0,0,1,1.034-.563.868.868,0,0,0,.282-1.416l-.007-.007-.887-.922a.9.9,0,0,0-.635-.263Zm9.522,5.22a.525.525,0,0,1-.522-.477A5.235,5.235,0,0,0,7.841,1.048.525.525,0,1,1,7.935,0a6.329,6.329,0,0,1,5.7,5.7.524.524,0,0,1-.475.569l-.048,0Zm-4.087,0a.524.524,0,0,0,.332-.664A2.122,2.122,0,0,0,8.062,4.282a.525.525,0,0,0-.35.989,1.066,1.066,0,0,1,.646.668.524.524,0,0,0,.664.332Zm2.061,0a.525.525,0,0,0,.445-.594A4.225,4.225,0,0,0,7.962,2.107a.525.525,0,0,0-.149,1.038,3.171,3.171,0,0,1,2.676,2.676.524.524,0,0,0,.594.445Z" transform="translate(-0.214 -0.001)" fill="#e9e8e6"/>
</svg>
