<svg id="user_1_" data-name="user (1)" xmlns="http://www.w3.org/2000/svg" width="18.701" height="24.935" viewBox="0 0 18.701 24.935">
  <path id="Path_3080" data-name="Path 3080" d="M12.234,12.468A6.234,6.234,0,1,0,6,6.234a6.234,6.234,0,0,0,6.234,6.234Zm0-10.39A4.156,4.156,0,1,1,8.078,6.234a4.156,4.156,0,0,1,4.156-4.156Z" transform="translate(-2.883 0)" fill="#ebe9e4"/>
  <path id="Path_3081" data-name="Path 3081" d="M12.351,14A9.361,9.361,0,0,0,3,23.351a1.039,1.039,0,1,0,2.078,0,7.273,7.273,0,1,1,14.546,0,1.039,1.039,0,0,0,2.078,0A9.361,9.361,0,0,0,12.351,14Z" transform="translate(-3 0.546)" fill="#ebe9e4"/>
</svg>
