<svg id="user_1_" data-name="user (1)" xmlns="http://www.w3.org/2000/svg" width="12.937" height="17.249" viewBox="0 0 12.937 17.249">
  <path id="Path_3080" data-name="Path 3080" d="M10.312,8.624A4.312,4.312,0,1,0,6,4.312a4.312,4.312,0,0,0,4.312,4.312Zm0-7.187A2.875,2.875,0,1,1,7.437,4.312a2.875,2.875,0,0,1,2.875-2.875Z" transform="translate(-3.844)" fill="#707d8d"/>
  <path id="Path_3081" data-name="Path 3081" d="M9.468,14A6.476,6.476,0,0,0,3,20.468a.719.719,0,1,0,1.437,0,5.031,5.031,0,1,1,10.062,0,.719.719,0,0,0,1.437,0A6.476,6.476,0,0,0,9.468,14Z" transform="translate(-3 -3.938)" fill="#707d8d"/>
</svg>
