<svg xmlns="http://www.w3.org/2000/svg" width="90.962" height="93" viewBox="0 0 90.962 93">
  <g id="Business-Management-Operation-Smartphone-Hand" transform="translate(-1.293 -3)">
    <path id="Path_3154" data-name="Path 3154" d="M62.441,12.458V69.2a9.3,9.3,0,0,1-1.576,5.217,9.431,9.431,0,0,1-7.881,4.24H21.458A9.448,9.448,0,0,1,12,69.2V12.458A9.458,9.458,0,0,1,21.458,3H52.983A9.458,9.458,0,0,1,62.441,12.458Z" transform="translate(6.17)" fill="#5aaae7"/>
    <path id="Path_3155" data-name="Path 3155" d="M28.876,44.364a4.748,4.748,0,0,1-.631,2.365l-6.179,10.7H18.946L18,55.855l7.093-12.279a4.748,4.748,0,0,0,.631-2.364,4.448,4.448,0,0,0-.2-1.371,3.941,3.941,0,0,1,.993.426A4.7,4.7,0,0,1,28.876,44.364Z" transform="translate(9.628 21.23)" fill="#3d9ae2"/>
    <path id="Path_3156" data-name="Path 3156" d="M46.458,39.729V55.98a9.431,9.431,0,0,1-7.881,4.24H37V39.729a4.729,4.729,0,1,1,9.458,0Z" transform="translate(20.577 18.441)" fill="#3d9ae2"/>
    <path id="Path_3157" data-name="Path 3157" d="M25.293,43.39a4.494,4.494,0,0,1-.5,1.293L24,46.038v-.11a3.082,3.082,0,0,1,.93-2.223,3.467,3.467,0,0,1,.363-.315Z" transform="translate(13.085 23.276)" fill="#d8d7da"/>
    <path id="Path_3158" data-name="Path 3158" d="M33.215,47.447a4.729,4.729,0,0,0-8.827-2.364L16.869,58.1a9.426,9.426,0,0,1-.835-3.893V29.02a3.153,3.153,0,0,0-2.427,1.8L6.45,46.343A15.618,15.618,0,0,0,5,52.932V81.005l25.22-.016V72.572A9.5,9.5,0,0,0,28.865,67.7l-2.427-4.035-.946-1.576,7.093-12.279a4.748,4.748,0,0,0,.631-2.364Z" transform="translate(2.136 14.995)" fill="#ffc477"/>
    <path id="Path_3159" data-name="Path 3159" d="M33.458,43a3.153,3.153,0,0,1,0,6.305H27.153a3.153,3.153,0,1,1,0-6.305Z" transform="translate(13.085 23.051)" fill="#e6e7e8"/>
    <path id="Path_3160" data-name="Path 3160" d="M67.754,59.8a4.729,4.729,0,0,1,9.458,0V78.712H34.825L28.032,66.953a4.731,4.731,0,0,1,8.2-4.729l3.153,5.454V37.729a4.729,4.729,0,0,1,9.458,0V56.644a4.729,4.729,0,1,1,9.458,0V58.22a4.729,4.729,0,0,1,9.458,0Z" transform="translate(15.044 17.288)" fill="#ffc477"/>
    <circle id="Ellipse_1194" data-name="Ellipse 1194" cx="14.186" cy="14.186" r="14.186" transform="translate(32.357 25.068)" fill="#3d9ae2"/>
    <circle id="Ellipse_1195" data-name="Ellipse 1195" cx="14.186" cy="14.186" r="14.186" transform="translate(29.204 21.915)" fill="#ffd422"/>
    <path id="Path_3161" data-name="Path 3161" d="M20,6h3.153V9.153H20Z" transform="translate(10.78 1.729)" fill="#3d9ae2"/>
    <path id="Path_3162" data-name="Path 3162" d="M24,6H36.61V9.153H24Z" transform="translate(13.085 1.729)" fill="#3d9ae2"/>
    <path id="Path_3163" data-name="Path 3163" d="M31.881,25.881H28.729a1.576,1.576,0,0,1,0-3.153h3.153a1.576,1.576,0,0,1,1.576,1.576H36.61a4.729,4.729,0,0,0-4.729-4.729V18H28.729v1.576a4.729,4.729,0,0,0,0,9.458h3.153a1.576,1.576,0,1,1,0,3.153H28.729a1.576,1.576,0,0,1-1.576-1.576H24a4.729,4.729,0,0,0,4.729,4.729v1.576h3.153V35.339a4.729,4.729,0,1,0,0-9.458Z" transform="translate(13.085 8.644)" fill="#ff5023"/>
    <g id="Group_3722" data-name="Group 3722" transform="translate(1.293 18.763)">
      <path id="Path_3164" data-name="Path 3164" d="M6.022,13.462,1.293,18.191l2.229,2.229L5.56,18.381V36.644H8.713V18.381l2.038,2.038,2.229-2.229L8.251,13.462a1.576,1.576,0,0,0-2.229,0Z" transform="translate(-1.293 -13)" fill="#ff9811"/>
      <path id="Path_3165" data-name="Path 3165" d="M58.979,18.191l-4.729-4.729a1.576,1.576,0,0,0-2.229,0l-4.729,4.729,2.229,2.229,2.038-2.038V36.644h3.153V18.381l2.038,2.038Z" transform="translate(25.216 -13)" fill="#ff9811"/>
      <path id="Path_3166" data-name="Path 3166" d="M50,30h3.153v3.153H50Z" transform="translate(26.776 -3.204)" fill="#ff9811"/>
      <path id="Path_3167" data-name="Path 3167" d="M50,34h3.153v3.153H50Z" transform="translate(26.776 -0.899)" fill="#ff9811"/>
      <path id="Path_3168" data-name="Path 3168" d="M4,30H7.153v3.153H4Z" transform="translate(0.267 -3.204)" fill="#ff9811"/>
    </g>
    <path id="Path_3169" data-name="Path 3169" d="M28.454,76.559H25.3V68.149a7.882,7.882,0,0,0-1.129-4.066L20.8,58.473a1.576,1.576,0,0,1-.016-1.6l6.986-12.1A3.31,3.31,0,0,0,26.577,40.2a3.153,3.153,0,0,0-4.16,1.234l-8.67,15.016a1.579,1.579,0,1,1-2.736-1.578l8.67-15.014a6.319,6.319,0,0,1,9.691-1.532,6.4,6.4,0,0,1,1.149,7.978l-6.548,11.34,2.905,4.814a11.034,11.034,0,0,1,1.576,5.689Z" transform="translate(5.478 19.426)" fill="#ffb655"/>
    <rect id="Rectangle_8828" data-name="Rectangle 8828" width="3.153" height="9.458" rx="1" transform="translate(62.306 72.356)" fill="#ffb655"/>
    <rect id="Rectangle_8829" data-name="Rectangle 8829" width="3.153" height="9.458" rx="1" transform="translate(71.763 72.356)" fill="#ffb655"/>
    <rect id="Rectangle_8830" data-name="Rectangle 8830" width="3.153" height="7.881" rx="1" transform="translate(81.221 73.932)" fill="#ffb655"/>
  </g>
</svg>
