<svg xmlns="http://www.w3.org/2000/svg" width="18.964" height="16.001" viewBox="0 0 18.964 16.001">
  <g id="XMLID_6_" transform="translate(-0.001 -25)">
    <path id="XMLID_7_" d="M3.036,104.445h10.3a.889.889,0,1,0,0-1.778H3.036l1.149-1.149a.889.889,0,0,0-1.257-1.257L.261,102.928a.88.88,0,0,0-.059.065l-.023.031c-.01.013-.02.026-.029.039s-.015.025-.023.038-.015.024-.022.037-.013.026-.019.04-.013.026-.018.039-.01.026-.014.039-.011.028-.015.043-.007.026-.01.04-.008.029-.011.045,0,.031-.007.046,0,.026-.006.04c0,.029,0,.058,0,.086H0q0,.043,0,.086c0,.013,0,.026.006.039s0,.031.007.047.007.029.011.044.006.027.01.04.01.028.015.042.009.027.015.04.012.026.018.038.012.027.02.041.014.024.021.035.015.026.024.039.018.025.028.038.016.022.024.032.037.042.056.062l0,0,2.667,2.667a.889.889,0,0,0,1.257-1.257Z" transform="translate(0 -70.556)" fill="#fff"/>
    <path id="XMLID_8_" d="M112.151,25h-11.26a.889.889,0,0,0-.889.889v3.556a.889.889,0,1,0,1.778,0V26.778h9.482V39.223H101.78V36.556a.889.889,0,1,0-1.778,0v3.556a.889.889,0,0,0,.889.889h11.26a.889.889,0,0,0,.889-.889V25.889A.889.889,0,0,0,112.151,25Z" transform="translate(-94.075)" fill="#fff"/>
  </g>
</svg>
