<svg xmlns="http://www.w3.org/2000/svg" width="12.622" height="13.564" viewBox="0 0 12.622 13.564">
  <path id="XMLID_273_" d="M14.867,9.769l-.255-.147a.969.969,0,0,1,0-1.678l.255-.147A1.453,1.453,0,0,0,15.4,5.811l-.484-.839a1.455,1.455,0,0,0-1.985-.532l-.255.147a.969.969,0,0,1-1.453-.839V3.453A1.455,1.455,0,0,0,9.768,2H8.8A1.455,1.455,0,0,0,7.346,3.453v.295a.969.969,0,0,1-1.453.839L5.637,4.44a1.456,1.456,0,0,0-1.986.532l-.484.839A1.452,1.452,0,0,0,3.7,7.8l.255.147a.969.969,0,0,1,0,1.678L3.7,9.769a1.452,1.452,0,0,0-.532,1.985l.484.839a1.455,1.455,0,0,0,1.985.532l.255-.147a.969.969,0,0,1,1.453.839v.294A1.455,1.455,0,0,0,8.8,15.564h.969a1.455,1.455,0,0,0,1.453-1.453v-.295a.969.969,0,0,1,1.453-.839l.255.147a1.456,1.456,0,0,0,1.985-.532l.484-.839a1.452,1.452,0,0,0-.532-1.985ZM9.283,11.2a2.422,2.422,0,1,1,2.422-2.422A2.425,2.425,0,0,1,9.283,11.2Z" transform="translate(-2.972 -2)" fill="#fff"/>
</svg>
